<svg width="32" height="32" viewBox="0 0 32 32" fill="none" xmlns="http://www.w3.org/2000/svg">
<path d="M16.3174 31.7095C24.8778 31.7095 31.8174 24.7699 31.8174 16.2095C31.8174 7.64906 24.8778 0.709473 16.3174 0.709473C7.75697 0.709473 0.817383 7.64906 0.817383 16.2095C0.817383 24.7699 7.75697 31.7095 16.3174 31.7095Z" fill="url(#paint0_linear_218_449)"/>
<path d="M8.60547 20.5862C8.60547 21.1555 8.76974 21.7012 9.075 22.1707L13.7113 17.5344L8.60547 12.8042V20.5862Z" fill="white"/>
<path d="M15.6481 7.35821L9.24512 11.795L16.2642 18.3033C16.4871 18.5146 16.8392 18.5087 17.0623 18.3033L24.1223 11.8181L17.6784 7.35788C17.0681 6.93539 16.2584 6.93572 15.6481 7.35821Z" fill="white"/>
<path d="M17.8602 19.1664C17.5256 19.4774 17.0914 19.63 16.663 19.63C16.2347 19.63 15.8004 19.4774 15.4658 19.1664L14.5737 18.3389L9.9082 22.9987C10.3777 23.3097 10.9234 23.4741 11.4928 23.4741H21.8335C22.4029 23.4741 22.9486 23.3097 23.4181 23.0046L18.7583 18.3448L17.8602 19.1664Z" fill="white"/>
<path d="M24.721 20.5866V12.8633L19.627 17.5466L24.2458 22.1711C24.5568 21.7016 24.721 21.1559 24.721 20.5866Z" fill="white"/>
<defs>
<linearGradient id="paint0_linear_218_449" x1="16.3174" y1="0.709473" x2="16.3174" y2="31.4796" gradientUnits="userSpaceOnUse">
<stop stop-color="#DEDEDE"/>
<stop offset="1" stop-color="#DEDEDE"/>
</linearGradient>
</defs>
</svg>
