<svg width="32" height="32" viewBox="0 0 32 32" fill="none" xmlns="http://www.w3.org/2000/svg">
<path d="M16.3174 31.4497C24.8778 31.4497 31.8174 24.5101 31.8174 15.9497C31.8174 7.38929 24.8778 0.449707 16.3174 0.449707C7.75697 0.449707 0.817383 7.38929 0.817383 15.9497C0.817383 24.5101 7.75697 31.4497 16.3174 31.4497Z" fill="url(#paint0_linear_218_450)"/>
<path fill-rule="evenodd" clip-rule="evenodd" d="M7.83394 15.7861C12.3525 13.8175 15.3656 12.5196 16.8732 11.8925C21.1777 10.1022 22.0721 9.79108 22.6551 9.78088C22.7834 9.77858 23.07 9.81037 23.2558 9.96107C23.4126 10.0883 23.4557 10.2602 23.4764 10.3808C23.497 10.5015 23.5227 10.7763 23.5023 10.991C23.269 13.4419 22.2597 19.3897 21.7462 22.1347C21.5289 23.2963 21.1011 23.6857 20.6869 23.7238C19.7868 23.8067 19.1033 23.129 18.2315 22.5575C16.8673 21.6633 16.0966 21.1066 14.7724 20.234C13.2421 19.2255 14.2341 18.6712 15.1063 17.7654C15.3345 17.5283 19.3004 13.921 19.3772 13.5938C19.3868 13.5528 19.3957 13.4003 19.3051 13.3197C19.2144 13.2392 19.0807 13.2667 18.9841 13.2886C18.8473 13.3197 16.668 14.7601 12.4462 17.61C11.8276 18.0348 11.2673 18.2417 10.7652 18.2309C10.2118 18.2189 9.1472 17.918 8.35583 17.6607C7.38514 17.3452 6.61366 17.1784 6.68084 16.6425C6.71583 16.3634 7.10019 16.0779 7.83394 15.7861Z" fill="white"/>
<defs>
<linearGradient id="paint0_linear_218_450" x1="16.3174" y1="0.449707" x2="16.3174" y2="31.2198" gradientUnits="userSpaceOnUse">
<stop stop-color="#DEDEDE"/>
<stop offset="1" stop-color="#DEDEDE"/>
</linearGradient>
</defs>
</svg>
