<svg width="376" height="151" viewBox="0 0 376 151" fill="none" xmlns="http://www.w3.org/2000/svg">
<g clip-path="url(#clip0_180_455)">
<path d="M147.925 119.613C147.658 119.66 147.343 119.692 146.981 119.708C146.635 119.723 146.304 119.731 145.989 119.731C145.249 119.731 144.548 119.605 143.887 119.353C143.242 119.101 142.675 118.708 142.187 118.173C141.715 117.637 141.337 116.96 141.054 116.142C140.786 115.307 140.652 114.323 140.652 113.19C140.652 112.12 140.786 111.167 141.054 110.333C141.337 109.483 141.731 108.766 142.234 108.184C142.754 107.602 143.368 107.161 144.076 106.862C144.785 106.547 145.572 106.389 146.438 106.389C146.642 106.389 146.894 106.397 147.193 106.413C147.508 106.429 147.752 106.452 147.925 106.484V104.453H149.862V106.555C150.145 106.476 150.476 106.429 150.853 106.413C151.247 106.397 151.57 106.389 151.821 106.389C152.577 106.389 153.278 106.531 153.923 106.814C154.569 107.082 155.127 107.491 155.6 108.042C156.088 108.578 156.465 109.262 156.733 110.097C157.001 110.915 157.135 111.868 157.135 112.954C157.135 114.072 156.977 115.056 156.662 115.906C156.363 116.756 155.954 117.464 155.434 118.031C154.915 118.598 154.309 119.023 153.616 119.306C152.924 119.589 152.184 119.731 151.397 119.731C151.223 119.731 150.964 119.723 150.617 119.708C150.287 119.676 150.035 119.629 149.862 119.566V121.927H147.925V119.613ZM151.538 108.042C151.318 108.042 151.034 108.05 150.688 108.066C150.342 108.082 150.058 108.129 149.838 108.207V118.007C149.995 118.039 150.2 118.062 150.452 118.078C150.72 118.078 150.979 118.078 151.231 118.078C151.767 118.078 152.262 117.976 152.719 117.771C153.191 117.567 153.601 117.252 153.947 116.827C154.309 116.402 154.592 115.866 154.797 115.221C155.001 114.576 155.104 113.82 155.104 112.954C155.104 112.23 155.017 111.569 154.844 110.97C154.687 110.356 154.451 109.829 154.136 109.388C153.837 108.948 153.467 108.617 153.026 108.396C152.585 108.16 152.089 108.042 151.538 108.042ZM146.343 118.078C146.422 118.078 146.524 118.078 146.65 118.078C146.792 118.078 146.941 118.078 147.099 118.078C147.256 118.062 147.406 118.047 147.547 118.031C147.705 117.999 147.839 117.968 147.949 117.936V108.137C147.76 108.105 147.524 108.082 147.24 108.066C146.973 108.05 146.729 108.042 146.508 108.042C145.973 108.042 145.47 108.152 144.997 108.373C144.541 108.578 144.139 108.9 143.793 109.341C143.447 109.766 143.171 110.301 142.966 110.947C142.777 111.592 142.683 112.34 142.683 113.19C142.683 113.946 142.77 114.63 142.943 115.245C143.116 115.843 143.36 116.354 143.675 116.779C144.005 117.204 144.391 117.527 144.832 117.748C145.288 117.968 145.792 118.078 146.343 118.078ZM159.739 110.522C160.337 110.16 161.03 109.892 161.817 109.719C162.619 109.546 163.454 109.459 164.32 109.459C165.138 109.459 165.792 109.569 166.28 109.79C166.783 110.01 167.161 110.301 167.413 110.663C167.681 111.01 167.854 111.395 167.933 111.82C168.027 112.246 168.074 112.67 168.074 113.096C168.074 114.04 168.051 114.961 168.003 115.858C167.956 116.756 167.933 117.606 167.933 118.409C167.933 118.991 167.956 119.542 168.003 120.062C168.051 120.581 168.137 121.061 168.263 121.502H166.87L166.374 119.849H166.256C166.114 120.07 165.933 120.29 165.713 120.51C165.508 120.715 165.256 120.904 164.957 121.077C164.658 121.234 164.312 121.368 163.918 121.479C163.525 121.589 163.076 121.644 162.572 121.644C162.069 121.644 161.596 121.565 161.155 121.408C160.73 121.25 160.361 121.03 160.046 120.746C159.731 120.447 159.479 120.093 159.29 119.684C159.117 119.274 159.03 118.81 159.03 118.291C159.03 117.598 159.172 117.023 159.455 116.567C159.739 116.095 160.132 115.725 160.636 115.457C161.155 115.174 161.769 114.977 162.478 114.867C163.202 114.741 163.997 114.678 164.863 114.678C165.083 114.678 165.296 114.678 165.5 114.678C165.721 114.678 165.941 114.693 166.162 114.725C166.209 114.253 166.232 113.828 166.232 113.45C166.232 112.584 166.059 111.978 165.713 111.632C165.367 111.285 164.737 111.112 163.824 111.112C163.556 111.112 163.265 111.136 162.95 111.183C162.651 111.214 162.336 111.27 162.006 111.348C161.691 111.411 161.384 111.498 161.085 111.608C160.801 111.702 160.549 111.813 160.329 111.939L159.739 110.522ZM163.092 119.991C163.533 119.991 163.926 119.936 164.272 119.826C164.619 119.7 164.918 119.55 165.17 119.377C165.422 119.188 165.626 118.983 165.784 118.763C165.957 118.543 166.083 118.33 166.162 118.125V116.165C165.941 116.15 165.713 116.142 165.477 116.142C165.256 116.126 165.036 116.118 164.816 116.118C164.328 116.118 163.848 116.15 163.375 116.213C162.919 116.26 162.509 116.362 162.147 116.52C161.801 116.661 161.518 116.866 161.297 117.133C161.092 117.386 160.99 117.708 160.99 118.102C160.99 118.653 161.187 119.109 161.58 119.471C161.974 119.818 162.478 119.991 163.092 119.991ZM171.642 109.648H172.941L173.295 111.065H173.39C173.752 110.514 174.216 110.097 174.783 109.813C175.365 109.514 176.026 109.365 176.766 109.365C178.341 109.365 179.513 109.829 180.285 110.758C181.056 111.687 181.442 113.206 181.442 115.315C181.442 116.307 181.308 117.204 181.04 118.007C180.789 118.794 180.426 119.463 179.954 120.015C179.482 120.565 178.907 120.991 178.23 121.29C177.569 121.589 176.829 121.738 176.011 121.738C175.428 121.738 174.964 121.699 174.617 121.62C174.287 121.557 173.925 121.439 173.531 121.266V126.178H171.642V109.648ZM176.412 111.017C175.609 111.017 174.972 111.23 174.5 111.655C174.043 112.065 173.72 112.694 173.531 113.544V119.4C173.815 119.621 174.137 119.794 174.5 119.92C174.862 120.03 175.342 120.085 175.94 120.085C177.026 120.085 177.884 119.684 178.514 118.881C179.159 118.062 179.482 116.866 179.482 115.292C179.482 114.646 179.427 114.064 179.317 113.544C179.206 113.009 179.025 112.56 178.774 112.198C178.537 111.82 178.222 111.529 177.829 111.325C177.451 111.12 176.979 111.017 176.412 111.017ZM184.418 109.672C184.968 109.64 185.543 109.601 186.141 109.554C186.755 109.506 187.511 109.483 188.408 109.483C189.967 109.483 191.084 109.727 191.761 110.215C192.438 110.687 192.777 111.411 192.777 112.387C192.777 112.938 192.612 113.481 192.281 114.017C191.966 114.536 191.439 114.922 190.699 115.174V115.268C191.628 115.441 192.281 115.764 192.659 116.236C193.037 116.709 193.225 117.338 193.225 118.125C193.225 119.353 192.785 120.243 191.903 120.794C191.022 121.345 189.699 121.62 187.936 121.62C187.275 121.62 186.661 121.596 186.094 121.549C185.527 121.518 184.968 121.479 184.418 121.431V109.672ZM186.307 119.873C186.606 119.904 186.897 119.928 187.18 119.943C187.479 119.959 187.826 119.967 188.219 119.967C189.274 119.967 190.053 119.818 190.557 119.519C191.077 119.219 191.336 118.708 191.336 117.984C191.336 117.417 191.116 116.96 190.675 116.614C190.25 116.252 189.487 116.071 188.385 116.071H186.307V119.873ZM188.621 114.63C188.904 114.63 189.18 114.583 189.447 114.489C189.715 114.394 189.951 114.268 190.156 114.111C190.376 113.938 190.549 113.741 190.675 113.521C190.817 113.3 190.888 113.064 190.888 112.812C190.888 112.182 190.699 111.75 190.321 111.513C189.943 111.262 189.282 111.136 188.338 111.136C187.834 111.136 187.432 111.144 187.133 111.159C186.85 111.175 186.574 111.191 186.307 111.206V114.63H188.621ZM196.012 110.522C196.611 110.16 197.303 109.892 198.09 109.719C198.893 109.546 199.728 109.459 200.594 109.459C201.412 109.459 202.065 109.569 202.553 109.79C203.057 110.01 203.435 110.301 203.687 110.663C203.955 111.01 204.128 111.395 204.206 111.82C204.301 112.246 204.348 112.67 204.348 113.096C204.348 114.04 204.324 114.961 204.277 115.858C204.23 116.756 204.206 117.606 204.206 118.409C204.206 118.991 204.23 119.542 204.277 120.062C204.324 120.581 204.411 121.061 204.537 121.502H203.144L202.648 119.849H202.53C202.388 120.07 202.207 120.29 201.987 120.51C201.782 120.715 201.53 120.904 201.231 121.077C200.932 121.234 200.586 121.368 200.192 121.479C199.799 121.589 199.35 121.644 198.846 121.644C198.342 121.644 197.87 121.565 197.429 121.408C197.004 121.25 196.634 121.03 196.32 120.746C196.005 120.447 195.753 120.093 195.564 119.684C195.391 119.274 195.304 118.81 195.304 118.291C195.304 117.598 195.446 117.023 195.729 116.567C196.012 116.095 196.406 115.725 196.91 115.457C197.429 115.174 198.043 114.977 198.752 114.867C199.476 114.741 200.271 114.678 201.137 114.678C201.357 114.678 201.57 114.678 201.774 114.678C201.995 114.678 202.215 114.693 202.435 114.725C202.483 114.253 202.506 113.828 202.506 113.45C202.506 112.584 202.333 111.978 201.987 111.632C201.64 111.285 201.011 111.112 200.098 111.112C199.83 111.112 199.539 111.136 199.224 111.183C198.925 111.214 198.61 111.27 198.279 111.348C197.965 111.411 197.658 111.498 197.358 111.608C197.075 111.702 196.823 111.813 196.603 111.939L196.012 110.522ZM199.365 119.991C199.806 119.991 200.2 119.936 200.546 119.826C200.893 119.7 201.192 119.55 201.444 119.377C201.695 119.188 201.9 118.983 202.058 118.763C202.231 118.543 202.357 118.33 202.435 118.125V116.165C202.215 116.15 201.987 116.142 201.751 116.142C201.53 116.126 201.31 116.118 201.09 116.118C200.602 116.118 200.121 116.15 199.649 116.213C199.192 116.26 198.783 116.362 198.421 116.52C198.075 116.661 197.791 116.866 197.571 117.133C197.366 117.386 197.264 117.708 197.264 118.102C197.264 118.653 197.461 119.109 197.854 119.471C198.248 119.818 198.752 119.991 199.365 119.991ZM215.425 111.301H211.741V121.455H209.852V111.301H206.169V109.648H215.425V111.301ZM225.552 120.51C225.079 120.888 224.481 121.187 223.757 121.408C223.049 121.628 222.293 121.738 221.49 121.738C220.593 121.738 219.813 121.596 219.152 121.313C218.491 121.014 217.948 120.597 217.523 120.062C217.098 119.511 216.783 118.857 216.578 118.102C216.374 117.346 216.271 116.496 216.271 115.552C216.271 113.536 216.72 112.001 217.617 110.947C218.515 109.892 219.798 109.365 221.466 109.365C222.002 109.365 222.537 109.428 223.072 109.554C223.607 109.664 224.087 109.884 224.513 110.215C224.938 110.545 225.284 111.017 225.552 111.632C225.819 112.23 225.953 113.025 225.953 114.017C225.953 114.536 225.906 115.111 225.811 115.74H218.231C218.231 116.433 218.302 117.047 218.444 117.582C218.586 118.117 218.806 118.574 219.105 118.952C219.404 119.314 219.79 119.597 220.262 119.802C220.75 119.991 221.34 120.085 222.033 120.085C222.568 120.085 223.104 119.991 223.639 119.802C224.174 119.613 224.575 119.393 224.843 119.141L225.552 120.51ZM221.49 111.017C220.561 111.017 219.813 111.262 219.247 111.75C218.696 112.238 218.365 113.072 218.255 114.253H224.111C224.111 113.056 223.883 112.222 223.426 111.75C222.97 111.262 222.324 111.017 221.49 111.017ZM228.924 109.648H230.223L230.577 111.065H230.671C231.033 110.514 231.498 110.097 232.064 109.813C232.647 109.514 233.308 109.365 234.048 109.365C235.622 109.365 236.795 109.829 237.567 110.758C238.338 111.687 238.724 113.206 238.724 115.315C238.724 116.307 238.59 117.204 238.322 118.007C238.07 118.794 237.708 119.463 237.236 120.015C236.764 120.565 236.189 120.991 235.512 121.29C234.851 121.589 234.111 121.738 233.293 121.738C232.71 121.738 232.246 121.699 231.899 121.62C231.569 121.557 231.206 121.439 230.813 121.266V126.178H228.924V109.648ZM233.694 111.017C232.891 111.017 232.253 111.23 231.781 111.655C231.325 112.065 231.002 112.694 230.813 113.544V119.4C231.096 119.621 231.419 119.794 231.781 119.92C232.143 120.03 232.623 120.085 233.222 120.085C234.308 120.085 235.166 119.684 235.796 118.881C236.441 118.062 236.764 116.866 236.764 115.292C236.764 114.646 236.709 114.064 236.598 113.544C236.488 113.009 236.307 112.56 236.055 112.198C235.819 111.82 235.504 111.529 235.111 111.325C234.733 111.12 234.261 111.017 233.694 111.017ZM251.466 117.299L252.126 119.566H252.245L252.765 117.275L255.054 109.648H256.969L253.472 120.251C253.207 121.022 252.938 121.77 252.67 122.494C252.419 123.218 252.136 123.863 251.821 124.43C251.505 124.997 251.15 125.446 250.758 125.776C250.363 126.123 249.909 126.296 249.387 126.296C248.821 126.296 248.357 126.217 247.995 126.059L248.325 124.43C248.53 124.509 248.727 124.548 248.915 124.548C249.357 124.548 249.782 124.312 250.192 123.84C250.599 123.383 250.939 122.588 251.207 121.455L246.46 109.648H248.632L251.466 117.299ZM266.908 120.676C266.436 121.022 265.877 121.282 265.231 121.455C264.586 121.644 263.91 121.738 263.2 121.738C262.288 121.738 261.516 121.596 260.888 121.313C260.257 121.014 259.738 120.597 259.328 120.062C258.936 119.511 258.643 118.857 258.454 118.102C258.283 117.33 258.196 116.48 258.196 115.552C258.196 113.552 258.635 112.025 259.517 110.97C260.399 109.9 261.665 109.365 263.319 109.365C264.074 109.365 264.712 109.428 265.231 109.554C265.768 109.664 266.247 109.829 266.672 110.049L266.13 111.679C265.768 111.474 265.365 111.317 264.926 111.206C264.484 111.081 264.012 111.017 263.508 111.017C261.273 111.017 260.155 112.529 260.155 115.552C260.155 116.15 260.21 116.724 260.319 117.275C260.446 117.81 260.642 118.291 260.91 118.716C261.193 119.125 261.556 119.455 261.998 119.708C262.452 119.959 263.011 120.085 263.674 120.085C264.24 120.085 264.745 119.999 265.184 119.826C265.641 119.652 266.011 119.455 266.294 119.235L266.908 120.676ZM276.618 111.301H271.4V121.455H269.51V109.648H278.508V121.455H276.618V111.301ZM290.766 120.51C290.294 120.888 289.696 121.187 288.971 121.408C288.263 121.628 287.508 121.738 286.706 121.738C285.807 121.738 285.027 121.596 284.366 121.313C283.706 121.014 283.162 120.597 282.737 120.062C282.313 119.511 281.997 118.857 281.793 118.102C281.587 117.346 281.486 116.496 281.486 115.552C281.486 113.536 281.935 112.001 282.832 110.947C283.728 109.892 285.012 109.365 286.681 109.365C287.217 109.365 287.751 109.428 288.288 109.554C288.822 109.664 289.301 109.884 289.728 110.215C290.153 110.545 290.498 111.017 290.766 111.632C291.034 112.23 291.168 113.025 291.168 114.017C291.168 114.536 291.121 115.111 291.027 115.74H283.445C283.445 116.433 283.517 117.047 283.659 117.582C283.8 118.117 284.021 118.574 284.319 118.952C284.62 119.314 285.005 119.597 285.476 119.802C285.966 119.991 286.554 120.085 287.247 120.085C287.784 120.085 288.317 119.991 288.854 119.802C289.388 119.613 289.79 119.393 290.058 119.141L290.766 120.51ZM286.706 111.017C285.777 111.017 285.027 111.262 284.461 111.75C283.909 112.238 283.579 113.072 283.47 114.253H289.326C289.326 113.056 289.097 112.222 288.64 111.75C288.183 111.262 287.538 111.017 286.706 111.017ZM294.139 121.455V109.648H296.029V119.802H300.067V109.648H301.954V119.802H305.992V109.648H307.882V121.455H294.139ZM318.752 116.236H313.415V121.455H311.525V109.648H313.415V114.583H318.752V109.648H320.642V121.455H318.752V116.236ZM323.617 115.552C323.617 113.552 324.057 112.025 324.938 110.97C325.837 109.9 327.119 109.365 328.788 109.365C329.669 109.365 330.434 109.514 331.08 109.813C331.741 110.097 332.284 110.514 332.709 111.065C333.134 111.6 333.449 112.253 333.653 113.025C333.856 113.78 333.961 114.623 333.961 115.552C333.961 117.551 333.511 119.086 332.615 120.156C331.733 121.211 330.457 121.738 328.788 121.738C327.906 121.738 327.136 121.596 326.473 121.313C325.83 121.014 325.293 120.597 324.869 120.062C324.444 119.511 324.129 118.857 323.925 118.102C323.719 117.33 323.617 116.48 323.617 115.552ZM325.577 115.552C325.577 116.15 325.631 116.724 325.743 117.275C325.867 117.826 326.056 118.306 326.309 118.716C326.56 119.125 326.89 119.455 327.3 119.708C327.71 119.959 328.207 120.085 328.788 120.085C330.928 120.101 331.999 118.59 331.999 115.552C331.999 114.937 331.937 114.355 331.81 113.804C331.701 113.253 331.519 112.773 331.269 112.364C331.015 111.954 330.685 111.632 330.275 111.395C329.868 111.144 329.371 111.017 328.788 111.017C326.647 111.002 325.577 112.513 325.577 115.552ZM343.832 111.301H338.828V121.455H336.938V109.648H343.832V111.301ZM344.625 115.552C344.625 113.552 345.067 112.025 345.948 110.97C346.845 109.9 348.129 109.365 349.795 109.365C350.677 109.365 351.442 109.514 352.087 109.813C352.748 110.097 353.292 110.514 353.716 111.065C354.141 111.6 354.457 112.253 354.66 113.025C354.866 113.78 354.968 114.623 354.968 115.552C354.968 117.551 354.519 119.086 353.622 120.156C352.741 121.211 351.464 121.738 349.795 121.738C348.916 121.738 348.144 121.596 347.483 121.313C346.837 121.014 346.301 120.597 345.876 120.062C345.452 119.511 345.136 118.857 344.933 118.102C344.726 117.33 344.625 116.48 344.625 115.552ZM346.584 115.552C346.584 116.15 346.641 116.724 346.75 117.275C346.877 117.826 347.066 118.306 347.317 118.716C347.57 119.125 347.9 119.455 348.308 119.708C348.717 119.959 349.214 120.085 349.795 120.085C351.938 120.101 353.009 118.59 353.009 115.552C353.009 114.937 352.944 114.355 352.82 113.804C352.708 113.253 352.527 112.773 352.276 112.364C352.023 111.954 351.692 111.632 351.285 111.395C350.875 111.144 350.379 111.017 349.795 111.017C347.654 111.002 346.584 112.513 346.584 115.552ZM141.502 134.483H142.801L143.155 135.899H143.25C143.612 135.348 144.076 134.931 144.643 134.648C145.225 134.349 145.887 134.199 146.627 134.199C148.201 134.199 149.374 134.664 150.145 135.592C150.916 136.521 151.302 138.04 151.302 140.15C151.302 141.141 151.168 142.039 150.901 142.842C150.649 143.629 150.287 144.298 149.814 144.849C149.342 145.4 148.768 145.825 148.091 146.124C147.429 146.423 146.689 146.573 145.871 146.573C145.288 146.573 144.824 146.533 144.478 146.454C144.147 146.392 143.785 146.273 143.391 146.1V151.012H141.502V134.483ZM146.272 135.852C145.47 135.852 144.832 136.065 144.36 136.49C143.903 136.899 143.58 137.529 143.391 138.379V144.235C143.675 144.455 143.998 144.628 144.36 144.754C144.722 144.865 145.202 144.92 145.8 144.92C146.886 144.92 147.744 144.518 148.374 143.716C149.019 142.897 149.342 141.7 149.342 140.126C149.342 139.481 149.287 138.898 149.177 138.379C149.067 137.843 148.886 137.395 148.634 137.033C148.398 136.655 148.083 136.364 147.689 136.159C147.311 135.954 146.839 135.852 146.272 135.852ZM154.089 135.356C154.687 134.994 155.38 134.726 156.167 134.553C156.97 134.38 157.804 134.294 158.67 134.294C159.489 134.294 160.142 134.404 160.63 134.624C161.134 134.844 161.511 135.136 161.763 135.498C162.031 135.844 162.204 136.23 162.283 136.655C162.377 137.08 162.424 137.505 162.424 137.93C162.424 138.875 162.401 139.796 162.354 140.693C162.307 141.59 162.283 142.44 162.283 143.243C162.283 143.826 162.307 144.377 162.354 144.896C162.401 145.416 162.488 145.896 162.613 146.337H161.22L160.724 144.684H160.606C160.465 144.904 160.284 145.124 160.063 145.345C159.858 145.55 159.607 145.738 159.308 145.911C159.008 146.069 158.662 146.203 158.268 146.313C157.875 146.423 157.426 146.478 156.922 146.478C156.419 146.478 155.946 146.4 155.506 146.242C155.081 146.085 154.711 145.864 154.396 145.581C154.081 145.282 153.829 144.928 153.64 144.518C153.467 144.109 153.381 143.644 153.381 143.125C153.381 142.432 153.522 141.858 153.805 141.401C154.089 140.929 154.482 140.559 154.986 140.291C155.506 140.008 156.12 139.811 156.828 139.701C157.552 139.575 158.347 139.512 159.213 139.512C159.433 139.512 159.646 139.512 159.851 139.512C160.071 139.512 160.291 139.528 160.512 139.559C160.559 139.087 160.583 138.662 160.583 138.284C160.583 137.418 160.409 136.812 160.063 136.466C159.717 136.12 159.087 135.947 158.174 135.947C157.906 135.947 157.615 135.97 157.3 136.017C157.001 136.049 156.686 136.104 156.356 136.183C156.041 136.246 155.734 136.332 155.435 136.442C155.151 136.537 154.9 136.647 154.679 136.773L154.089 135.356ZM157.442 144.825C157.883 144.825 158.276 144.77 158.623 144.66C158.969 144.534 159.268 144.385 159.52 144.211C159.772 144.022 159.977 143.818 160.134 143.597C160.307 143.377 160.433 143.164 160.512 142.96V141C160.291 140.984 160.063 140.976 159.827 140.976C159.607 140.96 159.386 140.953 159.166 140.953C158.678 140.953 158.198 140.984 157.725 141.047C157.269 141.094 156.86 141.197 156.498 141.354C156.151 141.496 155.868 141.7 155.647 141.968C155.443 142.22 155.34 142.543 155.34 142.936C155.34 143.487 155.537 143.944 155.931 144.306C156.324 144.652 156.828 144.825 157.442 144.825ZM167.126 141.023V139.488H168.779C169.062 139.488 169.338 139.441 169.605 139.347C169.889 139.253 170.141 139.126 170.361 138.969C170.581 138.796 170.754 138.599 170.88 138.379C171.022 138.143 171.093 137.899 171.093 137.647C171.093 137.033 170.88 136.6 170.455 136.348C170.03 136.096 169.393 135.97 168.543 135.97C167.929 135.97 167.362 136.065 166.843 136.253C166.339 136.442 165.945 136.624 165.662 136.797L165.119 135.333C165.591 135.065 166.142 134.829 166.772 134.624C167.417 134.419 168.181 134.317 169.062 134.317C171.675 134.317 172.982 135.285 172.982 137.222C172.982 137.773 172.801 138.316 172.439 138.851C172.093 139.37 171.589 139.741 170.928 139.961V140.055C171.856 140.229 172.502 140.559 172.864 141.047C173.242 141.535 173.431 142.18 173.431 142.983C173.431 143.487 173.328 143.951 173.124 144.377C172.919 144.802 172.612 145.172 172.203 145.486C171.794 145.801 171.274 146.053 170.644 146.242C170.03 146.415 169.314 146.502 168.496 146.502C167.693 146.502 167.024 146.431 166.488 146.289C165.969 146.148 165.497 145.974 165.071 145.77L165.614 144.211C165.977 144.416 166.409 144.573 166.913 144.684C167.433 144.794 167.992 144.849 168.59 144.849C169.55 144.849 170.282 144.684 170.786 144.353C171.29 144.022 171.542 143.519 171.542 142.842C171.542 142.275 171.306 141.834 170.833 141.519C170.361 141.189 169.582 141.023 168.496 141.023H167.126ZM176.416 134.506C176.967 134.475 177.541 134.435 178.139 134.388C178.753 134.341 179.509 134.317 180.406 134.317C181.965 134.317 183.083 134.561 183.76 135.049C184.437 135.521 184.775 136.246 184.775 137.222C184.775 137.773 184.61 138.316 184.279 138.851C183.964 139.37 183.437 139.756 182.697 140.008V140.103C183.626 140.276 184.279 140.598 184.657 141.071C185.035 141.543 185.224 142.173 185.224 142.96C185.224 144.188 184.783 145.077 183.901 145.628C183.02 146.179 181.697 146.454 179.934 146.454C179.273 146.454 178.659 146.431 178.092 146.384C177.526 146.352 176.967 146.313 176.416 146.266V134.506ZM178.305 144.707C178.604 144.739 178.895 144.762 179.178 144.778C179.478 144.794 179.824 144.802 180.217 144.802C181.272 144.802 182.051 144.652 182.555 144.353C183.075 144.054 183.334 143.542 183.334 142.818C183.334 142.251 183.114 141.795 182.673 141.448C182.248 141.087 181.485 140.905 180.383 140.905H178.305V144.707ZM180.619 139.465C180.902 139.465 181.178 139.418 181.445 139.323C181.713 139.229 181.949 139.103 182.154 138.946C182.374 138.772 182.547 138.576 182.673 138.355C182.815 138.135 182.886 137.899 182.886 137.647C182.886 137.017 182.697 136.584 182.319 136.348C181.941 136.096 181.28 135.97 180.336 135.97C179.832 135.97 179.43 135.978 179.131 135.994C178.848 136.009 178.572 136.025 178.305 136.041V139.465H180.619ZM195.567 139.3L195.638 137.836H195.567L194.599 139.347L189.286 146.289H188.199V134.483H190.089V141.685L190.018 143.078H190.112L191.033 141.614L196.346 134.483H197.456V146.289H195.567V139.3ZM208.599 136.135H204.915V146.289H203.027V136.135H199.343V134.483H208.599V136.135ZM217.843 139.3L217.914 137.836H217.843L216.875 139.347L211.562 146.289H210.476V134.483H212.365V141.685L212.294 143.078H212.388L213.309 141.614L218.622 134.483H219.732V146.289H217.843V139.3ZM229.246 141.401L227.428 141.685L224.311 146.289H222.02L224.854 142.251L225.799 141.378C224.98 141.252 224.279 140.921 223.697 140.386C223.13 139.851 222.847 139.126 222.847 138.213C222.847 137.505 222.965 136.899 223.201 136.395C223.453 135.891 223.807 135.474 224.264 135.144C224.72 134.813 225.263 134.577 225.893 134.435C226.523 134.278 227.231 134.199 228.018 134.199C228.601 134.199 229.144 134.238 229.648 134.317C230.151 134.396 230.647 134.483 231.135 134.577V146.289H229.246V141.401ZM229.246 136.088C229.042 136.009 228.813 135.954 228.561 135.923C228.31 135.876 228.089 135.852 227.9 135.852C226.893 135.852 226.121 136.033 225.586 136.395C225.067 136.757 224.807 137.332 224.807 138.119C224.807 138.827 225.082 139.378 225.633 139.772C226.2 140.15 226.94 140.339 227.853 140.339C227.869 140.339 227.892 140.339 227.924 140.339C227.955 140.339 228.018 140.339 228.113 140.339C228.207 140.339 228.341 140.339 228.514 140.339C228.687 140.323 228.931 140.307 229.246 140.291V136.088Z" fill="#5F596B"/>
<path d="M0.53833 11.9202H79.8022L66.9164 90.2224H0.53833V11.9202Z" fill="url(#paint0_linear_180_455)"/>
<path d="M321.58 10.8482L367.755 90.7491H275.408L321.58 10.8482Z" fill="url(#paint1_linear_180_455)"/>
<path d="M45.3614 90.2233L79.9064 11.9664H101.706L136.363 90.2233H113.333L86.2786 22.8105H94.9987L67.9441 90.2233H45.3614ZM64.255 75.0189L69.9564 58.697H108.191L113.892 75.0189H64.255Z" fill="black"/>
<path d="M140.559 90.2233V29.63H161.8V90.2233H140.559ZM151.179 22.9223C147.304 22.9223 144.174 21.8417 141.789 19.6803C139.404 17.5189 138.211 14.8358 138.211 11.631C138.211 8.4262 139.404 5.74311 141.789 3.58172C144.174 1.42035 147.304 0.339661 151.179 0.339661C155.055 0.339661 158.185 1.38308 160.57 3.46994C162.955 5.48225 164.148 8.09081 164.148 11.2956C164.148 14.6495 162.955 17.4444 160.57 19.6803C158.26 21.8417 155.13 22.9223 151.179 22.9223Z" fill="black"/>
<path d="M166.539 75.2427V60.8211L201.643 11.9664H224.561L190.463 60.8211L179.955 57.6907H241.107V75.2427H166.539ZM207.903 90.2233V75.2427L208.574 57.6907V44.3871H229.48V90.2233H207.903Z" fill="black"/>
<path d="M286.924 91.7884C280.74 91.7884 275.001 90.8194 269.709 88.8818C264.417 86.8694 259.835 84.0373 255.958 80.3852C252.156 76.7333 249.176 72.4478 247.014 67.5286C244.853 62.5352 243.772 57.0572 243.772 51.0947C243.772 45.1324 244.853 39.6917 247.014 34.7727C249.176 29.779 252.193 25.4564 256.07 21.8044C259.946 18.1524 264.528 15.3575 269.821 13.4197C275.187 11.4074 281.038 10.4012 287.374 10.4012C294.752 10.4012 301.348 11.631 307.159 14.0905C310.596 15.5437 313.889 17.4879 316.621 19.6957L313.43 25.1025L306.739 36.7136C304.055 33.8067 301.907 32.3876 298.775 30.9716C295.72 29.481 292.291 28.7357 288.491 28.7357C285.136 28.7357 282.081 29.2575 279.322 30.3008C276.566 31.3444 274.219 32.8722 272.279 34.8845C270.342 36.8223 268.815 39.1699 267.697 41.9275C266.654 44.6107 266.13 47.6663 266.13 51.0947C266.13 54.3741 266.654 57.3927 267.697 60.1503C268.815 62.9079 270.342 65.2928 272.279 67.3051C274.219 69.243 276.528 70.7708 279.21 71.8888C281.97 72.9321 284.987 73.4539 288.268 73.4539C291.546 73.4539 294.752 72.9321 297.881 71.8888C301.013 70.7708 304.179 68.9074 307.383 66.2991L319.792 81.8385C315.322 85.0434 310.142 87.503 304.254 89.217C298.365 90.9314 292.589 91.7884 286.924 91.7884ZM300.228 78.9319V49.4179H319.792V81.8385L300.228 78.9319Z" fill="black"/>
</g>
<defs>
<linearGradient id="paint0_linear_180_455" x1="40.1702" y1="11.9202" x2="40.1702" y2="90.2224" gradientUnits="userSpaceOnUse">
<stop stop-color="#FF008A"/>
<stop offset="1" stop-color="#FA00FF"/>
</linearGradient>
<linearGradient id="paint1_linear_180_455" x1="321.58" y1="10.8482" x2="321.58" y2="117.383" gradientUnits="userSpaceOnUse">
<stop offset="0.317708" stop-color="#06EA6F"/>
<stop offset="1" stop-color="#0386FF"/>
</linearGradient>
<clipPath id="clip0_180_455">
<rect width="375" height="150" fill="white" transform="translate(0.53833 0.371277)"/>
</clipPath>
</defs>
</svg>
